<?xml version="1.0" encoding="utf-8"?>
<!-- Generator: Adobe Illustrator 24.0.2, SVG Export Plug-In . SVG Version: 6.00 Build 0)  -->
<svg version="1.1" xmlns="http://www.w3.org/2000/svg" xmlns:xlink="http://www.w3.org/1999/xlink" x="0px" y="0px"
	 viewBox="0 0 750 500" style="enable-background:new 0 0 750 500;" xml:space="preserve">
<style type="text/css">
	.st0{opacity:0.8;}
	.st1{fill:url(#SVGID_1_);}
	.st2{fill:#FFFFE9;}
	.st3{clip-path:url(#SVGID_3_);}
	.st4{fill:#FFF9DE;}
	.st5{opacity:0.3;fill:url(#SVGID_4_);}
	.st6{opacity:0.4;}
	.st7{opacity:0.4;fill:url(#SVGID_5_);}
	.st8{fill:url(#SVGID_6_);}
	.st9{opacity:0.3;fill:url(#SVGID_7_);}
	.st10{fill:#B0D6D2;}
	.st11{fill:url(#SVGID_8_);}
	.st12{fill:url(#SVGID_9_);}
	.st13{fill:url(#SVGID_10_);}
	.st14{opacity:0.5;fill:url(#SVGID_11_);}
	.st15{opacity:0.3;fill:url(#SVGID_12_);}
	.st16{opacity:0.6;fill:url(#SVGID_13_);}
	.st17{fill:url(#SVGID_14_);}
	.st18{fill:url(#SVGID_15_);}
	.st19{fill:url(#SVGID_16_);}
	.st20{fill:url(#SVGID_17_);}
	.st21{fill:url(#SVGID_18_);}
	.st22{fill:url(#SVGID_19_);}
	.st23{opacity:0.4;fill:url(#SVGID_20_);}
	.st24{opacity:0.5;fill:url(#SVGID_21_);}
	.st25{fill:url(#SVGID_22_);}
	.st26{fill:url(#SVGID_23_);}
	.st27{fill:#508E83;}
	.st28{fill:#76A396;}
	.st29{fill:#4F8472;}
	.st30{opacity:0.3;fill:url(#SVGID_24_);}
	.st31{fill:#447F6B;}
	.st32{opacity:0.3;fill:url(#SVGID_25_);}
	.st33{fill:url(#SVGID_26_);}
	.st34{fill:url(#SVGID_27_);}
	.st35{fill:url(#SVGID_28_);}
	.st36{opacity:0.5;fill:url(#SVGID_29_);}
	.st37{fill:url(#SVGID_30_);}
	.st38{fill:url(#SVGID_31_);}
	.st39{fill:url(#SVGID_32_);}
	.st40{fill:#FFFFEB;}
	.st41{fill:none;stroke:#FFFFFF;stroke-miterlimit:10;}
</style>
<g id="BACKGROUND">
	<g>
		<g>
			<g class="st0">
				<g>
					<linearGradient id="SVGID_1_" gradientUnits="userSpaceOnUse" x1="375" y1="500" x2="375" y2="-9.094947e-13">
						<stop  offset="0" style="stop-color:#FFF0F0"/>
						<stop  offset="1.515994e-02" style="stop-color:#FFF0E9"/>
						<stop  offset="5.685320e-02" style="stop-color:#FFF0DD"/>
						<stop  offset="0.1137" style="stop-color:#FFF0D6"/>
						<stop  offset="0.2527" style="stop-color:#FFF0D4"/>
						<stop  offset="0.4164" style="stop-color:#FFF0D1"/>
						<stop  offset="0.5239" style="stop-color:#FFF0C9"/>
						<stop  offset="0.5699" style="stop-color:#FFF0C2"/>
						<stop  offset="0.6477" style="stop-color:#FBEEC1"/>
						<stop  offset="0.725" style="stop-color:#EFE8BF"/>
						<stop  offset="0.8021" style="stop-color:#DBDFBC"/>
						<stop  offset="0.879" style="stop-color:#BFD2B8"/>
						<stop  offset="0.9552" style="stop-color:#9CC1B2"/>
						<stop  offset="1" style="stop-color:#83B5AE"/>
					</linearGradient>
					<rect class="st1" width="750" height="500"/>
				</g>
			</g>
		</g>
	</g>
</g>
<g id="OBJECTS">
	<path class="st2" d="M581.7,167.3c0,33.2-26.9,60-60,60c-33.2,0-60-26.9-60-60c0-33.2,26.9-60,60-60
		C554.8,107.3,581.7,134.1,581.7,167.3z"/>
	<g>
		<g>
			<defs>
				<rect id="SVGID_2_" width="750" height="500"/>
			</defs>
			<clipPath id="SVGID_3_">
				<use xlink:href="#SVGID_2_"  style="overflow:visible;"/>
			</clipPath>
			<g class="st3">
				<g>
					<path class="st4" d="M762.1,373.5c-34-32.8-121.2-56.2-223.4-56.2C406.9,317.3,300,356.1,300,404c0,47.9,106.9,86.8,238.7,86.8
						c102.2,0,189.4-23.4,223.4-56.2V373.5z"/>
					<linearGradient id="SVGID_4_" gradientUnits="userSpaceOnUse" x1="421.3235" y1="416.2916" x2="559.3379" y2="416.2916">
						<stop  offset="0" style="stop-color:#83C1C4"/>
						<stop  offset="1" style="stop-color:#97AFAF"/>
					</linearGradient>
					<path class="st5" d="M512.3,396.8c-7.7-0.5-16.1,0.3-23.9,0.3c-17.4,0-34.8,1.8-51.7,4.9c-6.5,1.2-17.4,3.7-15,10.9
						c2.6,7.8,10.6,9.7,17.4,14.3c8.4,5.6,13.9,11.9,25,11.1c9.7-0.7,20.9-3.7,29.8-6.8c11.3-3.9,22.1-8.8,32.8-14
						c4.2-2,7.9-4,12.4-5.2c3.5-0.9,6.9-1.9,9.8-3.8c4.8-3.3,10.6-8.7,10.4-14.4L512.3,396.8z"/>
					<g class="st6">
						<g>
							<linearGradient id="SVGID_5_" gradientUnits="userSpaceOnUse" x1="368.7068" y1="352.4892" x2="566.2598" y2="352.4892">
								<stop  offset="0" style="stop-color:#83C1C4"/>
								<stop  offset="1" style="stop-color:#97AFAF"/>
							</linearGradient>
							<path class="st7" d="M526,342.2c-12.1-1.4-23.4-4.8-35.9-5.2c-15.1-0.4-30.3,0-45.4,0c-10,0-20,0-30,0
								c-12.6,0-24.9-0.4-37.2,2.2c-3.4,0.7-6.4,0.8-7.9,3.9c-2.3,4.7,0.2,13.7,2.6,17.6c3.1,5,5.8,5.3,12,6.3
								c20.6,3.1,42.7,0,63.5,0c18.3,0,36.3-1.4,52.7-8.5c5.5-2.4,8.2-4.5,14.6-4.5c5.5,0,7.4-0.2,11.9-2.7c4.6-2.5,9-3.8,14.5-4.2
								c3-0.2,6-0.4,9.1-0.4c5.2,0,10.8-2,15.8-1.8L526,342.2z"/>
							<linearGradient id="SVGID_6_" gradientUnits="userSpaceOnUse" x1="566.2598" y1="344.7124" x2="567.5" y2="344.7124">
								<stop  offset="0" style="stop-color:#83C1C4"/>
								<stop  offset="1" style="stop-color:#97AFAF"/>
							</linearGradient>
							<path class="st8" d="M566.3,344.7l1.2,0.1C567.1,344.7,566.7,344.7,566.3,344.7z"/>
						</g>
					</g>
					<linearGradient id="SVGID_7_" gradientUnits="userSpaceOnUse" x1="534.3629" y1="399.481" x2="796.5004" y2="399.481">
						<stop  offset="0" style="stop-color:#83C1C4"/>
						<stop  offset="1" style="stop-color:#97AFAF"/>
					</linearGradient>
					<path class="st9" d="M761,348.9c-18.4-2.1-37.2-3.3-55.4-6.5c-24-4.2-51-1.6-75.4-1.6c-13.3,0-26.3,0.1-39.5,1.2
						c-16,1.3-29.7,5.8-44.7,9.2l-11.5,0.4c-1.2,2,6.3,10,8.4,12.2c4.2,4.4,10.4,6.2,17,7.3c6.1,1.1,13.4,0.9,19.1,2.6
						c4.3,1.3,7.7,4.9,11.5,6.9c3.1,1.7,9.5,3.3,11.5,6c3.2,4.4,1.3,8.3,7.5,11.2c2.7,1.3,6.5,1.7,8.9,3.1c2.8,1.6,5.4,4.5,7.7,6.7
						c7.3,7,14.2,13.6,24.2,17.6c11.4,4.6,20.9,12.6,32.6,17.1c11.6,4.5,26.7,8.1,39.2,9.9c13.1,1.9,26.7,7.5,39.1,6.5V348.9z"/>
					<path class="st10" d="M562.7,226.4c-5.4-1.1-10.6-2.5-16-3.7c-12.7-2.9-24.1-7.1-36-11.4c-9.2-3.3-19.3-4.2-28.5-8.2
						c-4.7-2.1-6-3.4-11.6-0.6c-1.4,0.7-1.1,2.9-2.5,3.5c-1.1,0.5-3-0.4-4,0.1c-2,1-3.9,0.7-5.3,2.9c-8.5-4.2-14.2-11-24.5-4.5
						c-7.5,4.6-10.7,13.3-20.2,14.3c-5.2,0.5-10.1-0.7-14.7-1.1c-5.6-0.5-8.6,2.2-14.7,2.8c-6.8,0.6-9.1,1.4-15.3,3.5
						c-5,1.7-10.4,2.6-15.5,3c-6,0.5-10.5,1.7-15.9,1.7c-5.9,0-11.7-1-17.5-1.7c-11.5-1.3-22-4.6-33.2-6.9c-9.8-2-19.6-3.3-29.3-5.8
						c-4.7-1.2-9.2-4.1-14-4.6c-6.3-0.7-8.8,3.2-14,4.6c-11.5,3.1-20.2,0.1-31.3-2.3c-10.5-2.3-20.4-4.6-30.2-8.5
						c-5.2-2.1-8.2-4.1-13.8-4.8c-5.3-0.7-11.6-0.8-16.7-2.3c-9.6-2.7-16.5-12.2-25.2-16.3c-3.8-1.8-9.7-2.5-14.1-1
						c-5.1,1.7-7.1,6.8-12,9.3c-4.3,2.2-10.7,1.5-14.8,3.9c-5.1,3-5.8,6.2-11.8,8.1c-6.7,2.1-8-0.1-14.6-0.5
						c-6.1-0.4-9.7,3.1-14.7,4.7c-3.6,1.1-5.1,1.1-8.7,2.9c-3.2,1.6-3.3,2.2-7.3,2.9c-5.2,0.9-11,0.1-16,1.2l-10.6,41.2v41.8
						c47.6-0.9,208.8-2.4,229.9,2c8.9,1.8,17.6,5.3,26.7,5.8c7.5,0.4,15.1-0.7,22.6-0.6c19.4,0.1,37.3-0.2,56.5-2.5
						c18-2.1,35.3-6.3,52.7-10.9c23.4-6.3,45.1-15.6,69-20.7c20.2-4.3,40.3-7.4,60.5-11.1c21.4-3.9,40.5-11.7,58.7-22
						C574.3,228.7,571.7,228.2,562.7,226.4z"/>
					<g>
						<linearGradient id="SVGID_8_" gradientUnits="userSpaceOnUse" x1="375.0906" y1="351.6434" x2="375.0906" y2="185.4368">
							<stop  offset="0.2366" style="stop-color:#BCD4D4"/>
							<stop  offset="0.9278" style="stop-color:#A7CACA"/>
							<stop  offset="1" style="stop-color:#A4C9C9"/>
						</linearGradient>
						<path class="st11" d="M762.1,255.8l-0.4-1.1c-6.6-1.3-12.6-4.9-19.4-6.2c-6.8-1.3-14.5-2.6-21.1-3.8
							c-14.4-2.6-26-7.2-38.7-14.1c-11.3-6.1-25.4-11.5-36.2-19c-10.2-7.1-20.9-16.1-32.1-21.7c-5.5-2.7-14.3-5.8-20.6-4.1
							c-3.6,1-4,3.6-6.9,4.6c-5.9,2-5.1,0.1-8.6,0c-8.8-0.2-10,0.7-16.3,6.7c-5.2,4.9-8.8,6.7-15.8,9.3c-7.3,2.7-11.1,6.7-17.7,10.2
							c-5.6,2.9-14.6,5-20.9,7.5c-13.3,5.4-27.6,7.8-41.2,12.8c-9.3,3.4-13.7,5.7-24.2,3.7c-9.2-1.7-12.5-5.5-21.4-3.5
							c-8.7,1.9-9.2,4.5-18.6-0.6c-5.5-3-11.3-6.5-16.3-9.7c-11.2-7.3-31.3-20.7-45.6-21.9c-16.6-1.4-17.5,10-32.5,14.2
							c-11,3.1-26.5,1.1-36.6,7.7c-5.4,3.5-8.9,5.8-14.4,8.6c-6.4,3.3-7.8,7.3-13.1,11.5c-15.1,12.2-67.6-19.3-73.7-1.1
							c-15.8,0.7-30.4-2.7-45.7-6c-15.3-3.3-27.2-10.8-40.5-16.1c-6.5-2.6-13.1-4.4-19.8-7.5c-5.4-2.5-15.7-6.6-21.4-3.8
							c-3.2,1.6-9.9,10.7-12.3,13c-5.6,5.7-8.1,7.3-16.2,10c-7.3,2.4-14.8,6.5-22.2,7.9c-1.2,0.2-2.4,0.4-3.6,0.6v102.8
							c9.7,3.5,22.6,4,32.1,4.4c23.4,1.1,47.8,0.7,71.1-1.1c50.5-4,100.4-5.1,151.1-5.1c69.2,0,138.2-2.9,207.3-4.4
							c63.2-1.4,126.5,1.1,189.7,0.9c42.3-0.1,81.6,0.4,122.6-4.7V255.8z"/>
						<linearGradient id="SVGID_9_" gradientUnits="userSpaceOnUse" x1="163.5278" y1="351.6434" x2="163.5278" y2="204.7215">
							<stop  offset="0.2366" style="stop-color:#BCD4D4"/>
							<stop  offset="0.5757" style="stop-color:#A7CBCB"/>
							<stop  offset="1" style="stop-color:#86BDBD"/>
						</linearGradient>
						<path class="st12" d="M275,274.5c2-2.6,9-2.6,11-6.9c4-12.1,10-25.1,28-21.7c1,0,3-1.7,3-2.6c-3-12.1,7-15.6,16-22.5
							c2-1.7,0-6.9,1-10.4c0.6-2.6,2.3-4.6,4.9-5.6c-15.6-0.8-16.8,10.2-31.4,14.3c-11,3.1-26.5,1.1-36.6,7.7
							c-5.4,3.5-8.9,5.8-14.4,8.6c-6.4,3.3-7.8,7.3-13.1,11.5c-15.1,12.2-67.6-19.3-73.7-1.1c-15.8,0.7-30.4-2.7-45.7-6
							c-15.3-3.3-27.2-10.8-40.5-16.1c-6.5-2.6-13.1-4.4-19.8-7.5c-5.4-2.5-15.7-6.6-21.4-3.8c-3.2,1.6-9.9,10.7-12.3,13
							c-5.6,5.7-8.1,7.3-16.2,10c-7.3,2.4-14.8,6.5-22.2,7.9c-1.2,0.2-2.4,0.4-3.6,0.6v102.8c9.7,3.5,22.6,4,32.1,4.4
							c23.4,1.1,47.8,0.7,71.1-1.1c29.5-2.3,58.7-3.7,88.1-4.4C219.4,333.2,254.4,308.5,275,274.5z"/>
						<linearGradient id="SVGID_10_" gradientUnits="userSpaceOnUse" x1="389.9049" y1="345.543" x2="389.9049" y2="185.4443">
							<stop  offset="0.2366" style="stop-color:#BCD4D4"/>
							<stop  offset="0.5757" style="stop-color:#A7CBCB"/>
							<stop  offset="1" style="stop-color:#86BDBD"/>
						</linearGradient>
						<path class="st13" d="M599.3,185.5c-2-0.1-3.9-0.1-5.6,0.4c-3.6,1-4,3.6-6.9,4.6c-5.9,2-5.1,0.1-8.6,0
							c-8.8-0.2-10,0.7-16.3,6.7c-5.2,4.9-8.8,6.7-15.8,9.3c-7.3,2.7-11.1,6.7-17.7,10.2c-5.6,2.9-14.6,5-20.9,7.5
							c-13.3,5.4-27.6,7.8-41.2,12.8c-9.3,3.4-13.7,5.7-24.2,3.7c-9.2-1.7-12.5-5.5-21.4-3.5c-8.7,1.9-9.2,4.5-18.6-0.6
							c-5.5-3-11.3-6.5-16.3-9.7c-11.2-7.3-31.3-20.7-45.6-21.9c-0.4,0-0.7,0-1.1-0.1c-2.6,1-4.3,3-4.9,5.6c-1,3.5,1,8.7-1,10.4
							c-9,6.9-19,10.4-16,22.5c0,0.9-2,2.6-3,2.6c-18-3.5-24,9.5-28,21.7c-2,4.3-9,4.3-11,6.9c-20.6,33.9-55.6,58.7-95.6,71
							c20.9-0.5,41.9-0.7,63-0.7c55.5,0,110.8-1.8,166.2-3.4c10.6-7.2,19.9-16.3,30.4-24.5c2-2.6,8-0.9,12-3.5c12-6.9,22-13,35-18.2
							c11-4.3,18-13.9,28-20.8c2-1.7,6-1.7,6-2.6c6-6.9,2-19.1,12-19.9c12-0.9,20-8.7,26-16.5c4-5.2,16-2.6,18-9.5
							c2-8.7,4-19.1,16-19.9c1,0,3-2.6,3-5.2c2,0,4,0,5,0C601.9,196,596.8,190.4,599.3,185.5z"/>
					</g>
					
						<radialGradient id="SVGID_11_" cx="594.5937" cy="-56.9212" r="96.7151" gradientTransform="matrix(1.2225 0.5481 -0.2857 0.479 -290.5677 3.2991)" gradientUnits="userSpaceOnUse">
						<stop  offset="0" style="stop-color:#FFFFFF"/>
						<stop  offset="1" style="stop-color:#FFFFFF;stop-opacity:0"/>
					</radialGradient>
					<path class="st14" d="M570.8,354.9c-15.3,25.6-80.6,22.6-145.9-6.7c-65.3-29.3-105.9-73.8-90.6-99.3
						c15.3-25.6,80.6-22.6,145.9,6.7C545.5,284.9,586.1,329.4,570.8,354.9z"/>
					
						<radialGradient id="SVGID_12_" cx="513.7529" cy="35.9742" r="96.7156" gradientTransform="matrix(1.2225 0.5481 -0.2857 0.479 -290.5677 3.2991)" gradientUnits="userSpaceOnUse">
						<stop  offset="0" style="stop-color:#FFFFFF"/>
						<stop  offset="1" style="stop-color:#FFFFFF;stop-opacity:0"/>
					</radialGradient>
					<path class="st15" d="M445.5,355.1c-15.3,25.6-80.6,22.6-145.9-6.7c-65.3-29.3-105.9-73.8-90.6-99.3
						c15.3-25.6,80.6-22.6,145.9,6.7C420.1,285.1,460.7,329.6,445.5,355.1z"/>
					
						<radialGradient id="SVGID_13_" cx="718.8995" cy="-206.9098" r="96.7223" gradientTransform="matrix(1.2172 -0.5568 0.2902 0.4769 -178.4437 802.3319)" gradientUnits="userSpaceOnUse">
						<stop  offset="0" style="stop-color:#FFFFFF"/>
						<stop  offset="1" style="stop-color:#FFFFFF;stop-opacity:0"/>
					</radialGradient>
					<path class="st16" d="M754.3,249.5c15.5,25.5-24.6,70.2-89.7,100c-65,29.7-130.3,33.2-145.8,7.7c-15.5-25.5,24.6-70.2,89.7-100
						C673.5,227.5,738.8,224,754.3,249.5z"/>
					<g>
						<linearGradient id="SVGID_14_" gradientUnits="userSpaceOnUse" x1="432.5782" y1="349.0186" x2="432.5782" y2="253.0234">
							<stop  offset="0" style="stop-color:#A4C9C9"/>
							<stop  offset="0.5007" style="stop-color:#9AC8C5"/>
							<stop  offset="0.9892" style="stop-color:#8BC6C0"/>
						</linearGradient>
						<path class="st17" d="M525.8,336.1c-8.1-3.3-9.7-12.5-20.7-13.5c-2.1-0.2-4.3,1-6.5,0.3c-2-0.7-2.9-3.2-4.8-4
							c-3.5-1.3-9.7-0.4-13.3-1c-2-0.3-3-1.3-5.1-1.5c-2.5-0.2-4.3,1.9-6.7,0.9c-3.5-1.4-4.6-7.5-3.6-10.6
							c-6.2-5.5-13.1-1.7-19.7-4.3c-3.7-1.5-5.2-3.9-7.6-5.5c-2.4-1.6-7-3.6-10.6-4.4c0.6-8.6-10.4-8.2-14.9-12
							c-2.5-2.1-2.8-4-6.6-6c-3.4-1.8-5.8-3.7-8.4-6.1c-4.2-3.9-9.2-11.4-15.3-12.1c-3.6-0.4-6.4,2.8-8.8,2.6
							c-3.2-0.3-5.7-4.2-7.7-6.1c-3.2,2.6-6.9,4.1-10.1,6.7c-1.1,0.9-3.8,4-4.9,4.4c-2.5,1-5.1-0.3-5.6-0.1
							c-4.6,1.5-6.2,6.5-9.5,10.6c-3.7,4.7-8,9.1-12.8,13c-7.8,6.3-15.9,9.5-24,15.2c-6.4,4.5-12.7,9.5-18.8,14.4
							c-4.7,3.7-13.5,8.8-16,13.9c-0.6,1.2-1.3,1.8-2,2.8c3.7,4.8,20.1,3.6,26.6,3.8c10.3,0.4,19.8,2.2,29.7,3.3
							c11.3,1.3,23.9,0,34.6,3.1c6.7,1.9,22.6,1.3,27.3,4.8l223.7-5.7C595.9,342.9,532.4,338.7,525.8,336.1z"/>
						<linearGradient id="SVGID_15_" gradientUnits="userSpaceOnUse" x1="363.9927" y1="349.0186" x2="363.9927" y2="253.0234">
							<stop  offset="0" style="stop-color:#A4C9C9"/>
							<stop  offset="0.2562" style="stop-color:#9AC6C6"/>
							<stop  offset="0.6954" style="stop-color:#7EBFBE"/>
							<stop  offset="0.9892" style="stop-color:#68B9B7"/>
						</linearGradient>
						<path class="st18" d="M398.3,309.2c0-0.9-2-2.6-1-3.5c9-6.9,6-14.7,0-22.5c-1-0.9-4,1.7-5,0.9c-3-5.2-5-8.7-11-12.1
							c-3.9-2-3.5-8.7-6.9-12.9c-0.4,0.1-0.7,0.1-1.1,0.1c-3.2-0.3-5.7-4.2-7.7-6.1c-3.2,2.6-6.9,4.1-10.1,6.7
							c-1.1,0.9-3.8,4-4.9,4.4c-2.5,1-5.1-0.3-5.6-0.1c-4.6,1.5-6.2,6.5-9.5,10.6c-3.7,4.7-8,9.1-12.8,13c-7.8,6.3-15.9,9.5-24,15.2
							c-6.4,4.5-12.7,9.5-18.8,14.4c-4.7,3.7-13.5,8.8-16,13.9c-0.6,1.2-1.3,1.8-2,2.8c3.7,4.8,20.1,3.6,26.6,3.8
							c10.3,0.4,19.8,2.2,29.7,3.3c11.3,1.3,23.9,0,34.6,3.1c6.7,1.9,22.6,1.3,27.3,4.8l86.5-2.9c-13.5-5.8-25.2-14.9-36.1-22.2
							C420.3,316.1,410.3,313.5,398.3,309.2z"/>
					</g>
					<g>
						<linearGradient id="SVGID_16_" gradientUnits="userSpaceOnUse" x1="70.371" y1="530.3911" x2="362.5554" y2="254.1662">
							<stop  offset="0" style="stop-color:#A3BDBD"/>
							<stop  offset="0.3711" style="stop-color:#99B8B8"/>
							<stop  offset="0.9892" style="stop-color:#7EABAB"/>
						</linearGradient>
						<path class="st19" d="M547,385.1c-33.3-13.8-69-34.5-104.8-42.3c-10.4-2.3-22.3-3-32.2-6.5c-7.8-2.7-14.4-6.9-22-9.8
							c-26.6-10.2-58.4-15.6-83.1-30.3c-12-7.2-18.1-17.5-26.2-26.7c-3-3.4-11.5-10.3-15.7-10.4c-10.4-0.2-10.2,8.2-22,1.4
							c-12.2-7-23.3-16.5-31.8-26.9c-4.4-5.4-7.7-9.2-15.3-11.1c-3.2-0.8-5.9,0.5-9.7-1.1c-3.6-1.5-5.4-4.6-8.5-6.5
							c-5-3-13.3-7.3-19-8.7c-6.5-1.5-15.3-0.4-22.7-1.1c-17.2-1.5-22.6,2.2-37.2,9.3c-6.4,3.1-14.2,5.2-19.8,9.1
							c-6,4.2-9,11.5-15.2,16.1c-5.3,3.9-13,6.2-18.8,10c-5.9,3.9-10.7,8.1-15.8,13c-5.3,5.1-8.3,8.4-16.2,9.3
							c-4.2,0.5-8.1-0.3-11.9,0.9c-3.9,1.2-5.1,3.8-8.3,5c-0.8,0.3-1.7,0.5-2.7,0.7v138c13.3,2.3,26.8,4.1,39.8,6.4
							c25.8,4.5,52.7,2.8,78.8,4.5c25.6,1.7,50.6,2.4,76.3,2.4c51.4,0,102.6-3.6,153.9-6.7c25.7-1.6,50.9-7,76.8-7.2
							c21.6-0.2,43.1-1.2,64.6-2.6c22-1.4,58.6-0.7,77.5-12.8C568.1,392.6,558.3,389.8,547,385.1z"/>
						<linearGradient id="SVGID_17_" gradientUnits="userSpaceOnUse" x1="-40.355" y1="352.5038" x2="107.2348" y2="212.9756">
							<stop  offset="0" style="stop-color:#A3BDBD"/>
							<stop  offset="0.2859" style="stop-color:#99B7B9"/>
							<stop  offset="0.7762" style="stop-color:#7DA8B0"/>
							<stop  offset="0.9892" style="stop-color:#6FA0AB"/>
						</linearGradient>
						<path class="st20" d="M134,205.2c-17.2-1.5-22.6,2.2-37.2,9.3c-6.4,3.1-14.2,5.2-19.8,9.1c-6,4.2-9,11.5-15.2,16.1
							c-5.3,3.9-13,6.2-18.8,10c-5.9,3.9-10.7,8.1-15.8,13c-5.3,5.1-8.3,8.4-16.2,9.3c-4.2,0.5-8.1-0.3-11.9,0.9
							c-3.9,1.2-5.1,3.8-8.3,5c-0.8,0.3-1.7,0.5-2.7,0.7V369C4.8,357.9,19,345,31,328.3c5-6.1,13-7.8,18-13.9c5-6.9,2-17.3,10-21.7
							c8-4.3,18-2.6,23-9.5c5-6.1,2-13,5-19.1c2-3.5,6-3.5,8-6.9c6-6.1-4-13.9,3-19.1c7-5.2,15-2.6,23-7.8c9-5.2,13-11.3,12-21.7
							C133,207.6,133.4,206.3,134,205.2C134.1,205.2,134,205.2,134,205.2z"/>
						<linearGradient id="SVGID_18_" gradientUnits="userSpaceOnUse" x1="56.3068" y1="506.9348" x2="255.422" y2="318.6956">
							<stop  offset="0" style="stop-color:#A3BDBD"/>
							<stop  offset="0.2859" style="stop-color:#99B9B9"/>
							<stop  offset="0.7762" style="stop-color:#7DADB0"/>
							<stop  offset="0.9892" style="stop-color:#6FA7AB"/>
						</linearGradient>
						<path class="st21" d="M293,387.2c-38-23.4-86-26-119-54.6c-18-14.7,6-33.8-2-48.6c-6-9.5-8-19.1-6-30.3c1-2.6-8-6.1-9-9.5
							c-2-11.3,2-22.5-7-31.2c0-0.9-3-2.6-5-2.6c-0.2-2-0.9-3.6-2-5c-3,0-6.1,0-8.9-0.2c-0.7,1.2-1.1,2.4-1.1,3.5
							c1,10.4-3,16.5-12,21.7c-8,5.2-16,2.6-23,7.8c-7,5.2,3,13-3,19.1c-2,3.5-6,3.5-8,6.9c-3,6.1,0,13-5,19.1c-5,6.9-15,5.2-23,9.5
							c-8,4.3-5,14.7-10,21.7c-5,6.1-13,7.8-18,13.9C19,345,4.8,357.9-11.9,369v47.4c13.3,2.3,26.8,4.1,39.8,6.4
							c25.8,4.5,52.7,2.8,78.8,4.5c25.6,1.7,50.6,2.4,76.3,2.4c51.4,0,102.6-3.6,153.9-6.7c19.3-1.2,38.3-4.5,57.4-6.2
							c-3.1-1.1-6.2-2-9.4-2.7C352,408.9,321,404.6,293,387.2z"/>
						<linearGradient id="SVGID_19_" gradientUnits="userSpaceOnUse" x1="280.7898" y1="370.5954" x2="402.9247" y2="255.1317">
							<stop  offset="1.075270e-02" style="stop-color:#6FA7AB"/>
							<stop  offset="0.2238" style="stop-color:#7DADB0"/>
							<stop  offset="0.7141" style="stop-color:#99B9B9"/>
							<stop  offset="1" style="stop-color:#A3BDBD"/>
						</linearGradient>
						<path class="st22" d="M547,385.1c-33.3-13.8-69-34.5-104.8-42.3c-10.4-2.3-22.3-3-32.2-6.5c-7.8-2.7-14.4-6.9-22-9.8
							c-26.6-10.2-58.4-15.6-83.1-30.3c-12-7.2-18.1-17.5-26.2-26.7c-3-3.4-11.5-10.3-15.7-10.4c-10.4-0.2-10.2,8.2-22,1.4
							c-12.2-7-23.3-16.5-31.8-26.9c-4.4-5.4-7.7-9.2-15.3-11.1c-3.2-0.8-5.9,0.5-9.7-1.1c-3.6-1.5-5.4-4.6-8.5-6.5
							c-5-3-13.3-7.3-19-8.7c-2.6-0.6-5.5-0.8-8.5-0.8c16.1,12.6,24.2,31,39.8,42.2c17,11.3,17,25.1,25,39c3,6.1,18,3.5,23,7.8
							c8,8.7,2,26.9,15,31.2c20,5.2,39,8.7,60,11.3c9,0.9,11,13.9,17,13.9c29,0.9,53,13.9,79,23.4c22,7.8,45,10.4,70,13.9
							c5,0.9,9,4.3,14,6.1c20.7,5.1,41.9,6.9,63.3,7.2c0.5-0.3,1-0.6,1.5-0.9C568.1,392.6,558.3,389.8,547,385.1z"/>
					</g>
					
						<radialGradient id="SVGID_20_" cx="373.5622" cy="125.7203" r="96.7197" gradientTransform="matrix(1.2726 -0.1327 9.180000e-02 0.6621 -384.5741 263.4943)" gradientUnits="userSpaceOnUse">
						<stop  offset="0" style="stop-color:#FFFFFF"/>
						<stop  offset="1" style="stop-color:#FFFFFF;stop-opacity:0"/>
					</radialGradient>
					<path class="st23" d="M225.4,284.3c4.9,35.4-46.2,69.8-114.2,76.9c-68,7.1-127.1-15.8-132-51.2c-4.9-35.4,46.2-69.8,114.2-76.9
						C161.5,226,220.5,249,225.4,284.3z"/>
					
						<radialGradient id="SVGID_21_" cx="516.9214" cy="165.6872" r="96.7266" gradientTransform="matrix(1.1385 0.5105 -0.2326 0.39 -249.9755 24.3307)" gradientUnits="userSpaceOnUse">
						<stop  offset="0" style="stop-color:#FFFFFF"/>
						<stop  offset="1" style="stop-color:#FFFFFF;stop-opacity:0"/>
					</radialGradient>
					<path class="st24" d="M410.1,402.2c-12.4,20.8-71.8,15.6-132.6-11.7c-60.8-27.3-100-66.3-87.6-87.1
						c12.4-20.8,71.8-15.6,132.6,11.6C383.3,342.4,422.5,381.4,410.1,402.2z"/>
					<g>
						<linearGradient id="SVGID_22_" gradientUnits="userSpaceOnUse" x1="647.4432" y1="382.2434" x2="647.4432" y2="238.6407">
							<stop  offset="0" style="stop-color:#83C1C4"/>
							<stop  offset="1" style="stop-color:#97AFAF"/>
						</linearGradient>
						<path class="st25" d="M762.1,249.1c-4.8-1.2-8,1.9-13.1,0.3c-3.5-1.1-7-6-10-7.8c-4.9-2.9-4.1-4.1-11-1.6
							c-3.5,1.3-8.1,3.6-8.1,7.5c-7.7-1-13.3,11.4-17.8,15.8c-4.2,4-12.2,11.9-11.2,18.1c-6.7,0.6-13.9,2.4-20.6,3.4
							c-7.7,1.1-10.4,2.4-14.4,9.6c-7.8-0.4-13,5-19.8,7.1c-6.5,2-14,2.2-20.8,3.3c-4,0.6-3.6-1.5-8.2,1.2c-2.4,1.4-4.4,6.1-6.2,8.3
							c-4.1,5.1-9.3,11.5-14.8,15.8c-12,9.5-25.9,11.7-41,15.6c-23.4,6-8.9,13.6,8,15.6c14.8,1.8,30.5,2.4,46,1.7
							c13.3-0.6,34.3-4.2,46.8,0.2c2.6,7.3-7,8.1-10.9,12.9c5.6,6.2,33.2,4,42.1,4.3c15.2,0.6,29.7,2.8,45,1.5
							c13.5-1.1,26.4-2.9,40.1-3.2V249.1z"/>
						<linearGradient id="SVGID_23_" gradientUnits="userSpaceOnUse" x1="636.5562" y1="356.8545" x2="636.5562" y2="238.6407">
							<stop  offset="0" style="stop-color:#7BB9BA"/>
							<stop  offset="1" style="stop-color:#6FA9AF"/>
						</linearGradient>
						<path class="st26" d="M619,349.1c12-2.6,24-6.1,35-13c3-1.7,9,1.7,10-1.7c4-8.7,13-14.7,23-10.4c3-12.1,16-18.2,13-31.2
							c0,0,2-3.5,3-3.5c8,2.6,12-2.6,16-6.1c1-1.7-1-6.1,0-6.1c13-6.9,22-13.9,14-26c1-0.9,2-0.9,4-0.9c0-3,1-6.1,3.3-7.7
							c-0.4-0.4-0.9-0.7-1.3-0.9c-4.9-2.9-4.1-4.1-11-1.6c-3.5,1.3-8.1,3.6-8.1,7.5c-7.7-1-13.3,11.4-17.8,15.8
							c-4.2,4-12.2,11.9-11.2,18.1c-6.7,0.6-13.9,2.4-20.6,3.4c-7.7,1.1-10.4,2.4-14.4,9.6c-7.8-0.4-13,5-19.8,7.1
							c-6.5,2-14,2.2-20.8,3.3c-4,0.6-3.6-1.5-8.2,1.2c-2.4,1.4-4.4,6.1-6.2,8.3c-4.1,5.1-9.3,11.5-14.8,15.8
							c-12,9.5-25.9,11.7-41,15.6c-11.3,2.9-13.7,6.2-11.3,9.1C560.4,360.3,590.6,353.9,619,349.1z"/>
					</g>
					<g>
						<path class="st27" d="M762.1,466c-1.9-1.2-4.5-1.2-7.3-0.3c-2,0.6-2.9,1-5.1,1.4c-1.5,0.3-4.6,1-5.4,2.3c-2.1-1.4-7,1-8.7,2.6
							c-2-1.4-4.5,0.8-6.2,0.6c-2.7-0.2-4.6-1.9-7.3-1.5c-2.9,0.5-3.8,2.2-6.3,3.2c-2.1,0.9-5.3,1.1-7.7,1.2c-1.3,0.1-2.4,0.6-4,0.2
							c-1.2-0.3-2.1-1.3-3.4-1.4c-1.2-0.1-1.7,1-2.9,1.1c-1.8,0.2-3.1-0.4-4.7-0.9c-1.4-0.4-1.8-1-3.6-0.9c-1.5,0.1-2.7,1.4-4.1,1.4
							c-0.9,0-2.9-0.9-4-1.1c-1.6-0.2-2.7-0.3-4.3-0.6c-3.2-0.7-5.7-0.7-9.3-0.6c-1.5,0.1-4,0.5-5.4,0.1c-1.6-0.4-2.2-1.4-3.7-1.7
							c-2.5-0.6-5.6,0.6-8-0.3c-1.3-0.5-4.5-2.3-5.6-3.3c-1.9-1.5-1.3-3.7-3.1-5.1c-2.3-1.8-5-0.6-6.9-2.7c-1.7-1.9-0.4-3.2-2-4.9
							c-0.3-0.3-2.3-1.3-3-2c-1-0.9-1.4-1.3-2.2-2.4c-1.5-2.1-1-3.9-3.7-4.9c-2-0.7-3.9-0.4-5.8-1.7c-2-1.4-8.6-6.4-10.7-4.2
							c-2.4-1.2-5.1-0.8-7.7-1.3c-2.8-0.6-4.4-1.3-7.5-1.2c-0.1,0.4-0.3,0.8-0.4,1.1c-2.5-0.3-4-3.1-7-3.4c-2.6-0.3-5-0.4-7.4-0.6
							c-4.6-0.3-9.3,3.3-14.6,2.6c-3.9-0.5-3.4-0.5-5.7,2c-1.6,1.7-3.7,3.5-5.7,4.6c-2.7,1.6-6.8,2.5-10.7,3.2
							c-9.2-0.1-16.7-2.6-25.2-5.3c-9.6-3.1-19.6-5.9-29.5-9c-4.3-2.6-8.6-5.6-12.7-8.1c-6.8-4-14.1-8.4-21.4-12.7
							c-7.3-4.4-12.6-10.6-19.5-15.3c-4.5-3.1-5.7-3.9-11.2-5.3c-4.6-1.1-8.3-2.8-12-5.7c-2.9-2.2-7.3-6.2-9.3-9.4
							c-3.2-5.3-2.6-6.8-11.2-6.5c-1.1-4.4-6-2.6-9.5-3.9c-3.1-1.2-5.6-3.8-8.7-5.4c-6.1-3.1-11.8-8.6-18.7-10.1
							c-0.8-0.2-2.1,0.9-3.5,0.6c-0.7-0.1-2.3-1.9-3.2-2.3c-2.4-1.1-3.7-2.8-6.6-3c-1.8-0.1-5.9,0.9-7.3,1c-2.3,0.2-3.2-0.5-6,0.3
							c-3.1,0.9-4,3.6-6.7,4.4c-0.9,0.3-6.1-0.1-7.4,0.1c-6.4,1-8.8,2.3-15.4,0.6c-4.8-1.2-9.7-1.7-14-4.2c-3.8-2.2-6.9-5.5-10.5-8
							c-6.8-4.7-12.2-12.5-15.5-19.7c-2-4.4-0.9-8.6-2-13.3c-1.1-4.6-5.3-7.5-6.7-12.1c-1.4-4.7,1.2-8.6-5.3-11.1
							c-6.3-2.4-9.1,1.3-13.4-4.5c-3.1-4.2-4.2-7.3-10.7-9.1c-5.8-1.7-9.5-1.7-14.7-4.2c-3.8-1.8-6.7-4.3-10.6-6.3
							c-4.4-2.2-9.4-1.5-13.8-1.9c-8.4-0.8-23.3,1.3-30.8,4.8c-4.4,2-8.4,4.5-11.2,8.1c-4,5.1-6.1,5.5-11.5,9.2
							c-4.7,3.3-4.9,6.1-7.5,10.3c-1.6,2.5-3.3,3.2-5.8,4.9c-1.7,1.2-4.4,3.6-6,4.5c-8.7,4.7-20.9-1-29.2-4.2
							c-3.2-1.2-8.7-4.2-11.3-6.3c-2.2-1.8-1.4-3.9-4.8-5.1c-1-0.4-5.2,0.4-6.8,0.2c-5.3-0.8-9-6.6-13.2-6.5c-4.2,0.1-3.3,2.8-5.5,4
							c-2.3,1.4-4.7,1.5-7.1,2.9c-3.8,2.2-4.4,7.1-8.1,9.4c-1.6,1-5.4,2-6.7,2.7c-1.2,0.7-3.5,2.4-5.2,3.6
							c-4.2,2.9-8.1,8.6-12.9,12.6c-2.4,0.5-4.8,0.9-7.2,1.2v206.9h774V466z"/>
						<path class="st28" d="M17,345.6c3-2.6,13,4.3,17,0.9c4-2.6,8-6.1,14-6.9c-4-18.2,14-12.1,27-17.3c3-0.9,4-6.1,6-6.9
							c11.8-4.4,28.6-9.4,31.2-20.7c-0.1,0-0.1,0.1-0.2,0.1c-1.7,1.2-4.4,3.6-6,4.5c-8.7,4.7-20.9-1-29.2-4.2
							c-3.2-1.2-8.7-4.2-11.3-6.3c-2.2-1.8-1.4-3.9-4.8-5.1c-1-0.4-5.2,0.4-6.8,0.2c-5.3-0.8-9-6.6-13.2-6.5c-4.2,0.1-3.3,2.8-5.5,4
							c-2.3,1.4-4.7,1.5-7.1,2.9c-3.8,2.2-4.4,7.1-8.1,9.4c-1.6,1-5.4,2-6.7,2.7c-1.2,0.7-3.5,2.4-5.2,3.6
							c-4.2,2.9-8.1,8.6-12.9,12.6c-2.4,0.5-4.8,0.9-7.2,1.2v47.8C-1.2,357.5,9,353,17,345.6z"/>
						<path class="st29" d="M244,359.5c-1-2.6-5-3.5-8-5.2c-4-3.5,1-6.9,3-10.4c3-8.7-9-10.4-14-13c-17-9.5-18-33.8-36-45.1
							c7,19.9,4,42.5,9,64.2c1,2.6,6,5.2,7,7.8c3,4.3,3,10.4,6,14.7c5.5,9.5,11.5,18.4,16.7,28c4-3.3,8.4-6.3,13.3-9
							c8-4.6,14.8-9.9,21.5-15.4C253.9,373.4,246.7,368.3,244,359.5z"/>
						
							<radialGradient id="SVGID_24_" cx="447.9615" cy="257.5717" r="96.7215" gradientTransform="matrix(1.2618 0.1952 -0.1351 0.6565 -351.0509 137.6346)" gradientUnits="userSpaceOnUse">
							<stop  offset="0" style="stop-color:#FFFFFF"/>
							<stop  offset="1" style="stop-color:#FFFFFF;stop-opacity:0"/>
						</radialGradient>
						<path class="st30" d="M301.4,413.1c-7.2,35.1-67.7,55-135.1,44.6c-67.4-10.4-116.2-47.3-109-82.4c7.2-35.1,67.7-55,135.1-44.6
							C259.9,341.1,308.6,378,301.4,413.1z"/>
						<path class="st31" d="M95,383.8c5-5.2,8-13.9,13-18.2c11-9.5,17-19.9,24-32.1c1-2.6,4-5.2,5-7.8c2-2.6,1-6.1,3-8.7
							c6-7.8,9-13,8-22.5c0-0.9,2-3.5,3-3.5c9,0.9,13-6.1,19-9.5c5-3.5,1-14.7,6-22.5c0.3-0.6,0.7-1.2,1.2-1.7
							c-8.6-0.4-22.2,1.6-29.2,4.9c-4.4,2-8.4,4.5-11.2,8.1c-4,5.1-6.1,5.5-11.5,9.2c-4.7,3.3-4.9,6.1-7.5,10.3
							c-1.5,2.4-3.2,3.1-5.7,4.8c-2.6,11.3-19.4,16.4-31.2,20.7c-2,0.9-3,6.1-6,6.9c-13,5.2-31-0.9-27,17.3c-6,0.9-10,4.3-14,6.9
							c-4,3.5-14-3.5-17-0.9c-8,7.3-18.2,11.9-28.9,15.7v87.2C28.2,434.7,65.1,413.9,95,383.8z"/>
						<path class="st31" d="M272,449.7c3-5.2,1-12.1,4-17.3c5-10.4,12-19.1,18-29.5c2-2.6,3-6.1,6-8.7c3-4.3-1-9.5,0-13.9
							c1-0.9,1-3.5,3-3.5c12,0,22-6.1,22-17.3c3,0,7,0.9,8-0.9c3.4-3,5.4-8.4,8.1-12.7c-0.7-0.3-1.5-0.6-2.5-0.7
							c-1.8-0.1-5.9,0.9-7.3,1c-2.3,0.2-3.2-0.5-6,0.3c-3.1,0.9-4,3.6-6.7,4.4c-0.6,0.2-3.1,0.1-5.1,0c-4,1.7-8.4,2.9-13.6,3.2
							c-4,0.9-5,5.2-8,6.1c-3,1.7-10,0.9-11,1.7c-14,9.5-25,20.8-40,29.5c-16,8.7-26,21.7-40,32.1c-6,4.3-14,5.2-19,8.7
							C121.2,468.5,58.1,502-11.9,500v20.4H207c9.3-6.1,18.2-12.7,27-19.6C251,486.9,262,467.9,272,449.7z"/>
						<path class="st27" d="M762.1,466c-1.9-1.2-4.5-1.2-7.3-0.3c-2,0.6-2.9,1-5.1,1.4c-1.5,0.3-4.6,1-5.4,2.3c-2.1-1.4-7,1-8.7,2.6
							c-2-1.4-4.5,0.8-6.2,0.6c-2.7-0.2-4.6-1.9-7.3-1.5c-2.9,0.5-3.8,2.2-6.3,3.2c-2.1,0.9-5.3,1.1-7.7,1.2c-1.3,0.1-2.4,0.6-4,0.2
							c-1.2-0.3-2.1-1.3-3.4-1.4c-1.2-0.1-1.7,1-2.9,1.1c-1.8,0.2-3.1-0.4-4.7-0.9c-1.4-0.4-1.8-1-3.6-0.9c-1.5,0.1-2.7,1.4-4.1,1.4
							c-0.9,0-2.9-0.9-4-1.1c-1.6-0.2-2.7-0.3-4.3-0.6c-3.2-0.7-5.7-0.7-9.3-0.6c-1.5,0.1-4,0.5-5.4,0.1c-1.6-0.4-2.2-1.4-3.7-1.7
							c-2.5-0.6-5.6,0.6-8-0.3c-1.3-0.5-4.5-2.3-5.6-3.3c-1.9-1.5-1.3-3.7-3.1-5.1c-2.3-1.8-5-0.6-6.9-2.7c-1.7-1.9-0.4-3.2-2-4.9
							c-0.3-0.3-2.3-1.3-3-2c-1-0.9-1.4-1.3-2.2-2.4c-1.5-2.1-1-3.9-3.7-4.9c-2-0.7-3.9-0.4-5.8-1.7c-2-1.4-8.6-6.4-10.7-4.2
							c-2.4-1.2-5.1-0.8-7.7-1.3c-2.8-0.6-4.4-1.3-7.5-1.2c-0.1,0.4-0.3,0.8-0.4,1.1c-2.5-0.3-4-3.1-7-3.4c-2.6-0.3-5-0.4-7.4-0.6
							c-4.6-0.3-9.3,3.3-14.6,2.6c-3.9-0.5-3.4-0.5-5.7,2c-1.6,1.7-3.7,3.5-5.7,4.6c-2.7,1.6-6.8,2.5-10.7,3.2
							c-9.2-0.1-16.7-2.6-25.2-5.3c-9.6-3.1-19.6-5.9-29.5-9c-4.3-2.6-8.6-5.6-12.7-8.1c-6.8-4-14.1-8.4-21.4-12.7
							c-7.3-4.4-12.6-10.6-19.5-15.3c-4.5-3.1-5.7-3.9-11.2-5.3c-4.6-1.1-8.3-2.8-12-5.7c-2.9-2.2-7.3-6.2-9.3-9.4
							c-3.2-5.3-2.6-6.8-11.2-6.5c-1.1-4.4-6-2.6-9.5-3.9c-3.1-1.2-5.6-3.8-8.7-5.4c-6.1-3.1-11.8-8.6-18.7-10.1
							c-0.8-0.2-2.1,0.9-3.5,0.6c-0.7-0.1-2.3-1.9-3.2-2.3c-1.6-0.7-2.7-1.7-4.2-2.4c-2.8,4.3-4.7,9.7-8.1,12.7c-1,1.7-5,0.9-8,0.9
							c0,11.3-10,17.3-22,17.3c-2,0-2,2.6-3,3.5c-1,4.3,3,9.5,0,13.9c-3,2.6-4,6.1-6,8.7c-6,10.4-13,19.1-18,29.5
							c-3,5.2-1,12.1-4,17.3c-10,18.2-21,37.3-38,51.2c-8.7,6.9-17.7,13.5-27,19.6h555V466z"/>
						
							<radialGradient id="SVGID_25_" cx="578.3288" cy="294.1434" r="96.7215" gradientTransform="matrix(1.2618 0.1952 -0.1351 0.6565 -351.0509 137.6346)" gradientUnits="userSpaceOnUse">
							<stop  offset="0" style="stop-color:#FFFFFF"/>
							<stop  offset="1" style="stop-color:#FFFFFF;stop-opacity:0"/>
						</radialGradient>
						<path class="st32" d="M461,462.5c-7.2,35.1-67.7,55-135.1,44.6c-67.4-10.4-116.2-47.3-109-82.4c7.2-35.1,67.7-55,135.1-44.6
							C419.4,390.6,468.2,427.4,461,462.5z"/>
					</g>
					<g>
						<linearGradient id="SVGID_26_" gradientUnits="userSpaceOnUse" x1="-11.8901" y1="433.8306" x2="522.8818" y2="433.8306">
							<stop  offset="0" style="stop-color:#376F57"/>
							<stop  offset="0.1395" style="stop-color:#2E6551"/>
							<stop  offset="0.6978" style="stop-color:#0D433B"/>
							<stop  offset="1" style="stop-color:#003633"/>
						</linearGradient>
						<path class="st33" d="M522.9,520.4c-5.2-2.2-10.2-4.5-14.7-7.2c-17.1-10.4-33.5-22-51.5-31.4c-19.5-10.2-39.3-20.4-57.7-31.4
							c-7.5-4.5-12-10.5-21-11.9c-9.8-1.5-14.2-1.4-22.9-6.3c-26.9-15-55.8-21.6-83.1-34.5c-5.8-2.8-13.4-7.1-20-7.8
							c-4.5-0.4-9,2.3-13,1.8c-4-0.5-6.2-3.6-10-5c-6.4-2.5-14.4-2.9-22-1.1c-7.3,1.7-9.8,7.3-18.7,1.6c-7.3-4.7-5.6-13.9-12.5-17.8
							c-6.3-3.7-12-2-18.5-7.4c-4.2-3.4-6.6-11.1-11.5-13.5c-6.9-3.4-16.2,1.5-17,7.5c-4.9-2.1-9.7,0.2-10,5.2
							c-12.8-3.3-21.8,7.5-30.6,14.8c-10.8,9-23.1,16-38.5,18c-6.2,0.8-11.3,0.1-18.7-1.7c-7.5-1.8-14.4-6.8-21.8-5.7
							c-7.8,1.2-11,8.5-18.2,11.3c-1,0.4-2,0.7-2.9,1v121.5H522.9z"/>
						<linearGradient id="SVGID_27_" gradientUnits="userSpaceOnUse" x1="-11.8901" y1="460.6973" x2="522.8818" y2="460.6973">
							<stop  offset="0" style="stop-color:#376F57"/>
							<stop  offset="0.2797" style="stop-color:#2C6450"/>
							<stop  offset="0.7735" style="stop-color:#0F463D"/>
							<stop  offset="1" style="stop-color:#003633"/>
						</linearGradient>
						<path class="st34" d="M522.9,520.4c-5.2-2.2-10.2-4.5-14.7-7.2c-17.1-10.4-33.5-22-51.5-31.4c-19.5-10.2-39.3-20.4-57.7-31.4
							c-7.5-4.5-12-10.5-21-11.9c-9.8-1.5-14.2-1.4-22.9-6.3c-24.5-13.6-50.5-20.3-75.5-31.1c-1.2,0.2-2.4,0.5-3.5,1
							c-6,2.6-10,1.7-17,3.5c-5,1.7-1,7.8-3,13c-12-5.2-21,2.6-28,11.3c-5,5.2-13,6.9-19,13.9c-6,6.1-18,2.6-20,5.2
							c-10,15.6-30,27.7-50,25.1c0,2.6-3,5.2-5,6.1c-9,5.2-20,6.1-31,4.3c0,1.7-2,3.5-3,3.5c-6,1.7-8-6.9-15-5.2c-5,1.7-6,8.7-8,8.7
							c-29.9,4.7-59.3,10.6-88.9,10.9v18.2H522.9z"/>
						<linearGradient id="SVGID_28_" gradientUnits="userSpaceOnUse" x1="-20.4731" y1="446.7934" x2="429.3748" y2="242.8469">
							<stop  offset="0" style="stop-color:#376F57"/>
							<stop  offset="0.1142" style="stop-color:#2F6B55"/>
							<stop  offset="0.6889" style="stop-color:#0D574C"/>
							<stop  offset="1" style="stop-color:#004F49"/>
						</linearGradient>
						<path class="st35" d="M64,449.7c9-6.9,31-4.3,34-19.1c0-3.5,7-1.7,7,1.7c6-3.5,12-0.9,17-6.1c1,0,3-2.6,4-4.3
							c3-3.5,11,2.6,12,0c2-10.4,11-11.3,20-14.7c5-1.7,5-9.5,8-14.7c0-0.9,2-3.5,3-2.6c10.4,5.1,21.8,5.5,28.7-0.6
							c-2.5,0.7-5.3,0.5-9.4-2.1c-7.3-4.7-5.6-13.9-12.5-17.8c-6.3-3.7-12-2-18.5-7.4c-4.2-3.4-6.6-11.1-11.5-13.5
							c-6.9-3.4-16.2,1.5-17,7.5c-4.9-2.1-9.7,0.2-10,5.2c-12.8-3.3-21.8,7.5-30.6,14.8c-10.8,9-23.1,16-38.5,18
							c-6.2,0.8-11.3,0.1-18.7-1.7c-7.5-1.8-14.4-6.8-21.8-5.7c-7.8,1.2-11,8.5-18.2,11.3c-1,0.4-2,0.7-2.9,1v72.8
							c1.6-0.4,3.3-0.8,4.9-1.2C17,463.5,44,465.3,64,449.7z"/>
						
							<radialGradient id="SVGID_29_" cx="499.7444" cy="490.6641" r="96.7206" gradientTransform="matrix(1.5173 -0.3164 0.1339 0.4828 -504.3554 416.555)" gradientUnits="userSpaceOnUse">
							<stop  offset="0" style="stop-color:#FFFFFF"/>
							<stop  offset="1" style="stop-color:#FFFFFF;stop-opacity:0"/>
						</radialGradient>
						<path class="st36" d="M466.4,464.7c7.2,25.8-52.8,60.4-133.8,77.3c-81.1,16.9-152.6,9.7-159.7-16.1
							c-7.2-25.8,52.8-60.4,133.8-77.3C387.7,431.7,459.2,438.9,466.4,464.7z"/>
					</g>
					<g>
						<g>
							<linearGradient id="SVGID_30_" gradientUnits="userSpaceOnUse" x1="245.853" y1="443.6299" x2="762.0713" y2="443.6299">
								<stop  offset="0" style="stop-color:#2E3B31"/>
								<stop  offset="0.3273" style="stop-color:#233728"/>
								<stop  offset="0.9054" style="stop-color:#052B0F"/>
								<stop  offset="0.9892" style="stop-color:#00290B"/>
							</linearGradient>
							<path class="st37" d="M762.1,366.9c-4.6,1.9-7.3,5.7-12.9,6.6c-9.9-10.3-10.1,0.5-14.5,5.6c-4,4.7-15.2,12.7-20.6,16.4
								c-6.9,4.7-18.4,8.8-25.6,9.8c-4,0.5-8.3-0.5-12.1,0.5c-4.5,1.2-8.1,5-13,6c-4.5,1-8.6-0.9-13,1.1c-3.2,1.5-4.8,7.8-8.1,9.2
								c-5.7,2.4-19.1,1.9-25.3,2.8c-8.4,1.2-18.4,0.1-26.4,1.9c-9,2-16.7,5.5-26.1,6.9c-7.5,1-18.9,4.9-26.4,2.9
								c-6.5-1.7-13.6-7.9-20.6-10.4c-4.7,7.7-13.3,5.7-21,2.5c-9-3.8-13.5-4.5-23.4-6.4c-8.4-1.6-15.7-8.9-24.2-9.6
								c-7.9-0.7-15.4,6.5-20.7,10.7c-13.3,10.5-24,22.4-37.6,32.2c-10.2,7.4-20.8,14.6-33.1,19.3c-13,4.9-26.3,8.9-38.6,15.2
								c-14.8,7.6-28,14.1-44,19.8c-8.3,2.9-20.5,6.1-29,10.4h34.8c6.7-1.6,13.2-3.3,19.3-4c22.2-2.6,45.3-0.5,67.4,1.5
								c15.7,1.4,31.5,2.2,47.5,2.5h44.4c27.9-0.4,55.7-1.5,83-1.8c67.5-0.7,135.1-2.4,202.6-1.9c5.7,0,11.5,0.1,17.2,0.2V366.9z"/>
						</g>
					</g>
					<g>
						<g>
							<linearGradient id="SVGID_31_" gradientUnits="userSpaceOnUse" x1="245.853" y1="460.1114" x2="706.1895" y2="460.1114">
								<stop  offset="0" style="stop-color:#376057"/>
								<stop  offset="1" style="stop-color:#00302E"/>
							</linearGradient>
							<path class="st38" d="M550,485.2c11-2.6,16-12.1,27-16.5c3-1.7,6-0.9,8-0.9c4,1.7,10,3.5,14,1.7c10-4.3,12-16.5,24-18.2
								c11-2.6,22,1.7,32-3.5c2-0.9,5-2.6,7-6.1c3-5.2-3-12.1,3-16.5c13.8-9.5,28.2-16.7,41.2-25.6c-6,2.7-12.9,4.8-17.7,5.5
								c-4,0.5-8.3-0.5-12.1,0.5c-4.5,1.2-8.1,5-13,6c-4.5,1-8.6-0.9-13,1.1c-3.2,1.5-4.8,7.8-8.1,9.2c-5.7,2.4-19.1,1.9-25.3,2.8
								c-8.4,1.2-18.4,0.1-26.4,1.9c-9,2-16.7,5.5-26.1,6.9c-7.5,1-18.9,4.9-26.4,2.9c-6.5-1.7-13.6-7.9-20.6-10.4
								c-4.7,7.7-13.3,5.7-21,2.5c-9-3.8-13.5-4.5-23.4-6.4c-8.4-1.6-15.7-8.9-24.2-9.6c-7.9-0.7-15.4,6.5-20.7,10.7
								c-13.3,10.5-24,22.4-37.6,32.2c-10.2,7.4-20.8,14.6-33.1,19.3c-13,4.9-26.3,8.9-38.6,15.2c-14.8,7.6-28,14.1-44,19.8
								c-8.3,2.9-20.5,6.1-29,10.4h34.8c6.7-1.6,13.2-3.3,19.3-4c22.2-2.6,45.3-0.5,67.4,1.5c15.7,1.4,31.5,2.2,47.5,2.5h44.4
								c6.4-0.1,12.9-0.2,19.3-0.4c20.5-5.7,40-14,56.5-27.9C538,488.7,544,486.9,550,485.2z"/>
							<linearGradient id="SVGID_32_" gradientUnits="userSpaceOnUse" x1="478.5156" y1="443.439" x2="762.0713" y2="443.439">
								<stop  offset="0" style="stop-color:#2F5249"/>
								<stop  offset="0.3254" style="stop-color:#244942"/>
								<stop  offset="0.8999" style="stop-color:#06302E"/>
								<stop  offset="1" style="stop-color:#002B2A"/>
							</linearGradient>
							<path class="st39" d="M749.2,373.5c-9.9-10.3-10.1,0.5-14.5,5.6c-4,4.7-15.2,12.7-20.6,16.4c-2.2,1.5-5,3-7.9,4.3
								c-13,8.9-27.3,16.1-41.2,25.6c-6,4.3,0,11.3-3,16.5c-2,3.5-5,5.2-7,6.1c-10,5.2-21,0.9-32,3.5c-12,1.7-14,13.9-24,18.2
								c-4,1.7-10,0-14-1.7c-2,0-5-0.9-8,0.9c-11,4.3-16,13.9-27,16.5c-6,1.7-12,3.5-15,6.9c-16.5,13.9-35.9,22.2-56.5,27.9
								c21.4-0.5,42.7-1.1,63.8-1.4c67.5-0.7,135.1-2.4,202.6-1.9c5.7,0,11.5,0.1,17.2,0.2V366.9
								C757.4,368.7,754.7,372.5,749.2,373.5z"/>
						</g>
					</g>
				</g>
				<g>
					<g>
						<g>
							<path class="st40" d="M568,370.8c0,0.2-4,0.3-9,0.3s-9-0.1-9-0.3s4-0.3,9-0.3S568,370.6,568,370.8z"/>
						</g>
					</g>
					<g>
						<g>
							<path class="st40" d="M596.7,376.5c0,0.1-1,0.1-2.7,0.2c-1.7,0.1-4,0.1-6.6,0.1c-2.6,0-4.9,0-6.6-0.1
								c-1.7-0.1-2.7-0.1-2.7-0.2c0-0.1,1-0.2,2.7-0.2c1.7-0.1,4-0.1,6.6-0.1c2.6,0,4.9,0,6.6,0.1
								C595.6,376.4,596.7,376.5,596.7,376.5z"/>
						</g>
					</g>
					<g>
						<g>
							<path class="st40" d="M611.3,369c0,0.2-3,0.3-6.7,0.3c-3.7,0-6.7-0.1-6.7-0.3c0-0.2,3-0.3,6.7-0.3
								C608.3,368.7,611.3,368.9,611.3,369z"/>
						</g>
					</g>
					<g>
						<g>
							<path class="st40" d="M608,389.8c0,0.1-1.5,0.2-4,0.2c-2.5,0.1-5.9,0.1-9.7,0.1c-3.8,0-7.2,0-9.7-0.1c-2.5-0.1-4-0.1-4-0.2
								c0-0.1,1.5-0.1,4-0.2c2.5-0.1,5.9-0.1,9.7-0.1c3.8,0,7.2,0,9.7,0.1C606.5,389.7,608,389.8,608,389.8z"/>
						</g>
					</g>
					<g>
						<g>
							<path class="st40" d="M647.3,390.4c0,0.1-1.1,0.2-2.8,0.2c-1.8,0.1-4.2,0.1-6.8,0.1c-2.7,0-5.1,0-6.8-0.1
								c-1.7-0.1-2.8-0.1-2.8-0.2c0-0.1,1.1-0.1,2.8-0.2c1.8-0.1,4.2-0.1,6.8-0.1c2.7,0,5.1,0,6.8,0.1
								C646.3,390.3,647.3,390.3,647.3,390.4z"/>
						</g>
					</g>
					<g>
						<g>
							<path class="st40" d="M691.3,391.6c0,0.1-1.5,0.1-3.8,0.2c-2.4,0.1-5.6,0.1-9.2,0.1c-3.6,0-6.8,0-9.2-0.1
								c-2.4-0.1-3.8-0.1-3.8-0.2s1.5-0.2,3.8-0.2c2.4-0.1,5.6-0.1,9.2-0.1c3.6,0,6.8,0,9.2,0.1
								C689.9,391.4,691.3,391.5,691.3,391.6z"/>
						</g>
					</g>
					<g>
						<g>
							<path class="st40" d="M632.7,401.4c0,0.1-1.6,0.2-4.1,0.2c-2.5,0.1-6,0.1-9.9,0.1s-7.4,0-9.9-0.1c-2.5-0.1-4.1-0.1-4.1-0.2
								c0-0.1,1.6-0.1,4.1-0.2c2.5-0.1,6-0.1,9.9-0.1s7.4,0,9.9,0.1C631.1,401.2,632.7,401.3,632.7,401.4z"/>
						</g>
					</g>
					<g>
						<g>
							<path class="st40" d="M658,398.5c0,0.2-1.6,0.3-3.7,0.3c-2,0-3.7-0.1-3.7-0.3s1.6-0.3,3.7-0.3
								C656.4,398.2,658,398.4,658,398.5z"/>
						</g>
					</g>
					<g>
						<g>
							<path class="st40" d="M622,395c0,0.2-2.7,0.3-6,0.3c-3.3,0-6-0.1-6-0.3c0-0.2,2.7-0.3,6-0.3C619.3,394.8,622,394.9,622,395z"
								/>
						</g>
					</g>
					<g>
						<g>
							<path class="st40" d="M582.7,415.3c0,0-0.5,0.1-1.3,0.1c-0.8,0-2.1,0.1-3.6,0.1c-3,0.1-7.2,0.1-11.8,0.1s-8.8,0-11.8-0.1
								c-1.5,0-2.7-0.1-3.6-0.1c-0.8,0-1.3-0.1-1.3-0.1c0,0,0.5-0.1,1.3-0.1c0.8,0,2.1-0.1,3.6-0.1c3-0.1,7.2-0.1,11.8-0.1
								s8.8,0,11.8,0.1c1.5,0,2.7,0.1,3.6,0.1C582.2,415.2,582.7,415.2,582.7,415.3z"/>
						</g>
					</g>
					<g>
						<g>
							<path class="st40" d="M597.3,407.2c0,0.1-1.4,0.1-3.7,0.2c-2.3,0.1-5.5,0.1-9,0.1c-3.5,0-6.7,0-9-0.1
								c-2.3-0.1-3.7-0.1-3.7-0.2c0-0.1,1.4-0.2,3.7-0.2c2.3-0.1,5.5-0.1,9-0.1c3.5,0,6.7,0,9,0.1
								C595.9,407,597.3,407.1,597.3,407.2z"/>
						</g>
					</g>
					<g>
						<g>
							<ellipse class="st40" cx="495.3" cy="351.1" rx="6" ry="0.3"/>
						</g>
					</g>
					<g>
						<g>
							<path class="st40" d="M521.3,349.4c0,0.2-2.5,0.3-5.7,0.3s-5.7-0.1-5.7-0.3c0-0.2,2.5-0.3,5.7-0.3S521.3,349.2,521.3,349.4z"
								/>
						</g>
					</g>
					<g>
						<g>
							<path class="st40" d="M509.3,356.3c0,0.2-2.7,0.3-6,0.3c-3.3,0-6-0.1-6-0.3c0-0.2,2.7-0.3,6-0.3
								C506.6,356,509.3,356.2,509.3,356.3z"/>
						</g>
					</g>
					<g>
						<g>
							<ellipse class="st40" cx="523.3" cy="355.7" rx="4" ry="0.3"/>
						</g>
					</g>
					<g>
						<g>
							<path class="st40" d="M540,359.8c0,0.2-2.5,0.3-5.7,0.3c-3.1,0-5.7-0.1-5.7-0.3c0-0.2,2.5-0.3,5.7-0.3
								C537.5,359.5,540,359.6,540,359.8z"/>
						</g>
					</g>
					<g>
						<g>
							<path class="st40" d="M519.3,361.5c0,0.2-1.5,0.3-3.3,0.3c-1.8,0-3.3-0.1-3.3-0.3c0-0.2,1.5-0.3,3.3-0.3
								C517.8,361.2,519.3,361.4,519.3,361.5z"/>
						</g>
					</g>
					<g>
						<g>
							<path class="st40" d="M562.7,366.7c0,0.2-2.2,0.3-5,0.3s-5-0.1-5-0.3s2.2-0.3,5-0.3S562.7,366.6,562.7,366.7z"/>
						</g>
					</g>
					<g>
						<g>
							<path class="st40" d="M582,368.5c0,0.2-1.5,0.3-3.3,0.3s-3.3-0.1-3.3-0.3c0-0.2,1.5-0.3,3.3-0.3S582,368.3,582,368.5z"/>
						</g>
					</g>
					<g>
						<g>
							<path class="st40" d="M618,376.5c0,0.2-1.9,0.3-4.3,0.3c-2.4,0-4.3-0.1-4.3-0.3c0-0.2,1.9-0.3,4.3-0.3
								C616.1,376.3,618,376.4,618,376.5z"/>
						</g>
					</g>
					<g>
						<g>
							<path class="st40" d="M619.3,382.3c0,0.2-1,0.3-2.3,0.3c-1.3,0-2.3-0.1-2.3-0.3c0-0.2,1-0.3,2.3-0.3
								C618.3,382,619.3,382.2,619.3,382.3z"/>
						</g>
					</g>
					<g>
						<g>
							<path class="st40" d="M564.7,381.7c0,0.2-4,0.3-9,0.3s-9-0.1-9-0.3s4-0.3,9-0.3S564.7,381.6,564.7,381.7z"/>
						</g>
					</g>
					<g>
						<g>
							<path class="st40" d="M547.3,422.8c0,0.2-2.7,0.3-6,0.3c-3.3,0-6-0.1-6-0.3c0-0.2,2.7-0.3,6-0.3
								C544.6,422.5,547.3,422.6,547.3,422.8z"/>
						</g>
					</g>
					<g>
						<g>
							<path class="st40" d="M500.7,419.3c0,0.2-3.1,0.3-7,0.3s-7-0.1-7-0.3c0-0.2,3.1-0.3,7-0.3S500.7,419.2,500.7,419.3z"/>
						</g>
					</g>
					<g>
						<g>
							<path class="st40" d="M530.7,417c0,0.2-3.9,0.3-8.7,0.3c-4.8,0-8.7-0.1-8.7-0.3c0-0.2,3.9-0.3,8.7-0.3
								C526.8,416.7,530.7,416.8,530.7,417z"/>
						</g>
					</g>
					<g>
						<g>
							<path class="st40" d="M509.3,425.1c0,0.2-1.3,0.3-3,0.3c-1.7,0-3-0.1-3-0.3c0-0.2,1.3-0.3,3-0.3
								C508,424.8,509.3,424.9,509.3,425.1z"/>
						</g>
					</g>
					<g>
						<g>
							<path class="st40" d="M579.3,423.9c0,0.2-1.6,0.3-3.7,0.3s-3.7-0.1-3.7-0.3c0-0.2,1.6-0.3,3.7-0.3S579.3,423.8,579.3,423.9z"
								/>
						</g>
					</g>
					<g>
						<g>
							<path class="st40" d="M569.3,421.1c0,0.2-3.7,0.3-8.3,0.3s-8.3-0.1-8.3-0.3c0-0.2,3.7-0.3,8.3-0.3S569.3,420.9,569.3,421.1z"
								/>
						</g>
					</g>
					<g>
						<g>
							<path class="st40" d="M637.3,417c0,0-0.6,0.1-1.6,0.1c-1,0-2.5,0.1-4.3,0.1c-3.6,0.1-8.6,0.1-14.1,0.1
								c-5.5,0-10.5,0-14.1-0.1c-1.8,0-3.3-0.1-4.3-0.1c-1,0-1.6-0.1-1.6-0.1c0,0,0.6-0.1,1.6-0.1c1,0,2.5-0.1,4.3-0.1
								c3.6-0.1,8.6-0.1,14.1-0.1c5.5,0,10.5,0,14.1,0.1c1.8,0,3.3,0.1,4.3,0.1C636.8,416.9,637.3,417,637.3,417z"/>
						</g>
					</g>
					<g>
						<g>
							<path class="st40" d="M666.7,385.8c0,0.2-3.4,0.3-7.7,0.3c-4.2,0-7.7-0.1-7.7-0.3s3.4-0.3,7.7-0.3
								C663.2,385.5,666.7,385.6,666.7,385.8z"/>
						</g>
					</g>
					<g>
						<g>
							<path class="st40" d="M642,371.3c0,0.2-3.1,0.3-7,0.3s-7-0.1-7-0.3c0-0.2,3.1-0.3,7-0.3S642,371.2,642,371.3z"/>
						</g>
					</g>
				</g>
			</g>
		</g>
	</g>
</g>
<g id="DESIGNED_BY_FREEPIK">
</g>
</svg>
